# Blender v3.2.1 OBJ File: 'test_town.blend'
# www.blender.org
mtllib test_town.mtl
o Cube_Cube.002
v -22.417139 16.236160 -50.330185
v 0.837857 7.158406 -50.330185
v 0.837859 7.158406 -60.094112
v -6.271192 7.158406 -50.330185
v 19.185400 16.236160 -50.330185
v 19.185400 16.236160 -60.094112
v -6.271190 7.158406 -60.094112
v 19.185400 0.000000 -60.094112
v 19.185400 0.000000 -50.330185
v -22.417139 0.000000 -50.330185
v 0.837858 0.000000 -60.094112
v 0.837858 0.000000 -50.330185
v -6.271191 0.000000 -60.094112
v -6.271191 0.000000 -50.330185
v -13.366199 16.236160 -60.094112
v -13.366199 0.000000 -60.094112
v -22.417139 16.236160 -74.598503
v -22.417139 0.000000 -74.598503
v -13.366199 16.236160 -74.598503
v -13.366199 0.000000 -74.598503
v 8.161750 16.236160 -60.094112
v 8.161750 0.000000 -60.094112
v 18.084028 16.236160 -60.094112
v 18.084028 0.000000 -60.094112
v 8.161750 16.236160 -95.500717
v 8.161750 0.000000 -95.500717
v 18.084028 16.236160 -95.500717
v 18.084028 0.000000 -95.500717
v -22.273315 16.236160 -95.500717
v -22.273315 0.000000 -95.500717
v -22.273315 16.236160 -114.808701
v -22.273315 0.000000 -114.808701
v 20.800684 16.236160 -95.500717
v 20.800684 0.000000 -95.500717
v 20.800684 16.236160 -114.808701
v 20.800684 0.000000 -114.808701
v 18.084028 18.221743 -55.212151
v -17.891668 18.221743 -55.212151
v 13.122890 18.221743 -55.212151
v 18.084028 18.221743 -105.154709
v -19.556662 18.221743 -105.154709
v 13.122890 18.221743 -105.154709
v -17.891668 18.221743 -71.943108
vt 0.625000 0.437500
vt 0.500000 0.500000
vt 0.500000 0.437500
vt 0.625000 0.000000
vt 0.500000 0.250000
vt 0.500000 0.000000
vt 0.625000 0.375000
vt 0.625000 0.500000
vt 0.812500 0.750000
vt 0.640625 0.625000
vt 0.828125 0.625000
vt 0.625000 0.812500
vt 0.625000 0.875000
vt 0.625000 0.750000
vt 0.500000 0.812500
vt 0.875000 0.500000
vt 0.875000 0.750000
vt 0.843750 0.625000
vt 0.500000 0.875000
vt 0.500000 0.375000
vt 0.500000 0.781250
vt 0.625000 0.781250
vt 0.500000 0.781250
vt 0.000000 0.000000
vt 0.625000 0.781250
vt 0.500000 0.968750
vt 0.625000 0.968750
vt 0.625000 0.968750
vt 0.500000 0.937500
vt 0.625000 0.937500
vt 0.843750 0.750000
vt 0.625000 0.937500
vt 0.500000 0.937500
vt 0.500000 0.937500
vt 0.500000 0.968750
vt 0.625000 0.968750
vt 0.828125 0.750000
vt 0.843750 0.750000
vt 0.843750 0.750000
vt 0.812500 0.750000
vt 0.812500 0.750000
vt 0.812500 0.750000
vt 0.843750 0.750000
vt 0.843750 0.750000
vt 0.625000 0.937500
vt 0.500000 0.937500
vt 0.812500 0.750000
vt 0.625000 0.968750
vt 0.500000 0.968750
vt 0.500000 0.750000
vt 0.500000 1.000000
vt 0.625000 0.250000
vt 0.656250 0.750000
vt 0.500000 0.968750
vt 0.625000 0.937500
vt 0.625000 1.000000
vn 0.0000 0.0000 1.0000
vn 1.0000 0.0000 0.0000
vn 0.0000 0.9263 -0.3767
vn 0.0000 -1.0000 0.0000
vn -1.0000 0.0000 0.0000
vn 0.8745 0.4851 0.0000
vn 0.0000 0.8009 -0.5988
vn 0.0000 0.0000 -1.0000
vn 0.0000 0.9263 0.3767
vn 0.0000 0.9795 -0.2015
vn -0.5901 0.8073 0.0000
vn 0.0000 0.9795 0.2015
vn 0.5901 0.8073 0.0000
vn 0.4018 0.9157 0.0000
vn -0.3716 0.9284 0.0000
vn -0.4018 0.9157 0.0000
vn 0.3716 0.9284 0.0000
usemtl None
s off
f 4/1/1 10/2/1 14/3/1
f 6/4/2 9/5/2 8/6/2
f 2/7/1 1/8/1 4/1/1
f 21/9/3 38/10/3 39/11/3
f 2/7/4 7/12/4 3/13/4
f 17/14/5 10/2/5 1/8/5
f 7/12/2 14/3/2 13/15/2
f 5/16/6 6/17/6 37/18/6
f 2/7/5 11/19/5 12/20/5
f 20/21/2 15/22/2 16/23/2
f 43/24/7 19/25/7 17/14/7
f 34/26/2 35/27/2 33/28/2
f 35/27/8 32/29/8 31/30/8
f 39/11/3 37/18/3 23/31/3
f 21/32/5 26/33/5 22/34/5
f 39/11/9 38/10/9 1/8/9
f 28/35/1 33/28/1 27/36/1
f 42/37/10 40/38/10 35/39/10
f 29/40/11 41/41/11 31/42/11
f 40/38/12 27/43/12 33/44/12
f 33/44/13 35/39/13 40/38/13
f 9/5/1 2/7/1 12/20/1
f 25/45/1 30/46/1 26/33/1
f 16/23/8 7/12/8 13/15/8
f 15/22/14 43/24/14 38/10/14
f 25/47/12 41/41/12 29/40/12
f 3/13/8 15/22/8 21/32/8
f 28/35/2 23/48/2 24/49/2
f 27/43/12 40/38/12 42/37/12
f 39/11/15 25/47/15 21/9/15
f 38/10/16 17/14/16 1/8/16
f 3/13/8 22/34/8 11/19/8
f 23/31/3 37/18/3 6/17/3
f 17/14/8 20/21/8 18/50/8
f 29/40/5 32/29/5 30/46/5
f 39/11/17 27/43/17 42/37/17
f 23/48/8 8/51/8 24/49/8
f 4/1/1 1/8/1 10/2/1
f 6/4/2 5/52/2 9/5/2
f 2/7/1 5/52/1 1/8/1
f 21/9/3 15/53/3 38/10/3
f 2/7/4 4/1/4 7/12/4
f 17/14/5 18/50/5 10/2/5
f 7/12/2 4/1/2 14/3/2
f 2/7/5 3/13/5 11/19/5
f 20/21/2 19/25/2 15/22/2
f 34/26/2 36/54/2 35/27/2
f 35/27/8 36/54/8 32/29/8
f 21/32/5 25/45/5 26/33/5
f 1/8/9 5/16/9 39/11/9
f 5/16/9 37/18/9 39/11/9
f 28/35/1 34/26/1 33/28/1
f 35/39/10 31/42/10 42/37/10
f 31/42/10 41/41/10 42/37/10
f 9/5/1 5/52/1 2/7/1
f 25/45/1 29/55/1 30/46/1
f 16/23/8 15/22/8 7/12/8
f 15/22/14 19/25/14 43/24/14
f 25/47/12 42/37/12 41/41/12
f 3/13/8 7/12/8 15/22/8
f 28/35/2 27/36/2 23/48/2
f 39/11/15 42/37/15 25/47/15
f 38/10/16 43/24/16 17/14/16
f 3/13/8 21/32/8 22/34/8
f 17/14/8 19/25/8 20/21/8
f 29/40/5 31/42/5 32/29/5
f 39/11/17 23/31/17 27/43/17
f 23/48/8 6/56/8 8/51/8
